<svg width="234" height="234" viewBox="0 0 234 234" fill="none" xmlns="http://www.w3.org/2000/svg">
<path fill-rule="evenodd" clip-rule="evenodd" d="M151.885 110.191C131.391 125.607 96.6123 149.26 96.6123 132.335V68.3482C96.6123 39.651 132.607 67.7805 152.944 85.9638C160.249 92.4914 159.704 104.315 151.885 110.191ZM217.249 35.5409C205.238 13.9067 172.213 0 112.179 0C88.2202 0 37.6589 9.95273 20.6171 26.2719C-5.89153 51.6471 -3.39792 128.257 10.1102 149.891C23.6182 171.525 50.6407 180.794 77.6506 188.528C104.673 196.249 157.208 217.883 157.208 217.883L145.203 191.618C145.203 191.618 187.231 190.069 217.249 154.529C247.266 118.988 229.253 57.175 217.249 35.5409Z" fill="#D21F3C"/>
</svg>
